# xmcd
#
# Track frame offsets:
#	150
#	22384
#	38278
#	62833
#	79367
#	99705
#	120244
#	135011
#	157848
#	176316
#	194103
#	217822
#	231678
#	245715
#	258985
#	276143
#	290718
#	306244
#	317071
#
# Disc length: 4444
#
# Revision: 1
# Processed by: cddbd v1.5.1PL0 Copyright (c) Steve Scherf et al.
# Submitted via: FreeRIP 2.51 
# Normalized: r0:DSETVAR1,TDELIM( - )
#
DISCID=12115a13
DTITLE=Various Artist - Finger Poppin' Time (Best of OD Vol 1)
DYEAR=1998
DGENRE=Blues
TTITLE0=Good Old Days - Jimmy McCrackin
TTITLE1=House of Blue Lights - Band of Oz
TTITLE2=Gospel Medley - Harvey Fuqua and Moonglows
TTITLE3=Jumpin the Gun - Ronnie Barnes
TTITLE4=Can't Let You Go - Dudley Birch
TTITLE5=Bark Bottle and Ball - Sugarbees
TTITLE6=Trickle Trickle - Breeze
TTITLE7=Memories and Souvenirs - Freda Payne
TTITLE8=(I'll Keep) Holdin' On - The Catalinas
TTITLE9=Swinging Boogie Blues - Suzanne Saxon and Swingin Boogie Band
TTITLE10=The Way She Shakes That Thing - Earl Thomas
TTITLE11=Broken Hearted Melody - Eliza
TTITLE12=Avalon - The Rhythm Sheiks
TTITLE13=Let It Rock - Fingers Taylor
TTITLE14=Flip Flop and Fly - Leon Martin and Jimmy Hall
TTITLE15=Club Savoy (Savoy Jump) - Jimmy McCracklin
TTITLE16=The Eyes Don't Lie - Fred James
TTITLE17=Arkansas - Jimmy McCracklin
TTITLE18=Cannonball - Billy C Parlowe
EXTD=
EXTT0=
EXTT1=
EXTT2=
EXTT3=
EXTT4=
EXTT5=
EXTT6=
EXTT7=
EXTT8=
EXTT9=
EXTT10=
EXTT11=
EXTT12=
EXTT13=
EXTT14=
EXTT15=
EXTT16=
EXTT17=
EXTT18=
PLAYORDER=
